<svg xmlns="http://www.w3.org/2000/svg" fill="none" viewBox="0 0 128 128"><g id="smoke__smoke" clip-path="url(#smoke__clip0_2045_39752)"><g id="smoke__Sky"><g id="smoke__Clouds"><g id="smoke__Cloud"><path id="smoke__Cloud_2" fill="#e6effc" d="M90.389 63.086c2.295-9.204-2.648-18.95-11.38-22.604-8.744-3.658-19.181-.344-24.172 7.73-4.3-2.587-9.862-2.434-14.013.387-4.14 2.814-6.324 7.915-5.474 12.855-6.957 1.315-11.957 7.885-11.289 14.954S30.871 89.002 37.953 89h53.024C98.045 89 104 83.119 104 76.028c0-7.327-6.323-13.26-13.611-12.942"/></g><animateTransform attributeName="transform" begin="0s" calcMode="spline" dur="3s" keySplines=".42 0 .58 1; .42 0 .58 1" repeatCount="indefinite" type="translate" values="0 0;0 -3;0 0"/></g></g><g id="smoke__Smoke"><path id="smoke__Smoke 1" fill="#94a3b8" d="M62.5 110a4.5 4.5 0 1 0 0-9 4.5 4.5 0 0 0 0 9"><animateTransform attributeName="transform" begin="-2.9s" calcMode="spline" dur="3s" keySplines=".42 0 .58 1" repeatCount="indefinite" type="translate" values="0 0;8 -4"/><animate attributeName="opacity" begin="-2.9s" dur="3s" keyTimes="0;0.2;0.8;1" repeatCount="indefinite" values="0;1;1;0"/></path><path id="smoke__Smoke 2" fill="#94a3b8" d="M53.5 101a7.5 7.5 0 1 0 0-15 7.5 7.5 0 0 0 0 15"><animateTransform attributeName="transform" begin="-2.5s" calcMode="spline" dur="3s" keySplines=".42 0 .58 1" repeatCount="indefinite" type="translate" values="0 0;8 -4"/><animate attributeName="opacity" begin="-2.5s" dur="3s" keyTimes="0;0.2;0.8;1" repeatCount="indefinite" values="0;1;1;0"/></path><path id="smoke__Smoke 3" fill="#94a3b8" d="M71.5 89C77.299 89 82 84.299 82 78.5S77.299 68 71.5 68 61 72.701 61 78.5 65.701 89 71.5 89"><animateTransform attributeName="transform" begin="-2.1s" calcMode="spline" dur="3s" keySplines=".42 0 .58 1" repeatCount="indefinite" type="translate" values="0 0;8 -4"/><animate attributeName="opacity" begin="-2.1s" dur="3s" keyTimes="0;0.2;0.8;1" repeatCount="indefinite" values="0;1;1;0"/></path></g></g><defs><clipPath id="smoke__clip0_2045_39752"><rect width="128" height="128" fill="#fff"/></clipPath></defs></svg>